<?xml version="1.0" encoding="UTF-8"?>
<!DOCTYPE svg PUBLIC "-//W3C//DTD SVG 1.1//EN" "http://www.w3.org/Graphics/SVG/1.1/DTD/svg11.dtd">
<!-- Creator: CorelDRAW 2021 (64-Bit) -->
<svg xmlns="http://www.w3.org/2000/svg" xml:space="preserve" width="1.22047in" height="1.22047in" version="1.1" style="shape-rendering:geometricPrecision; text-rendering:geometricPrecision; image-rendering:optimizeQuality; fill-rule:evenodd; clip-rule:evenodd"
viewBox="0 0 1220.47 1220.47"
 xmlns:xlink="http://www.w3.org/1999/xlink"
 xmlns:xodm="http://www.corel.com/coreldraw/odm/2003">
 <defs>
  <style type="text/css">
   <![CDATA[
    .str0 {stroke:#0060AA;stroke-width:15.28;stroke-miterlimit:2.61313}
    .str1 {stroke:#EF7F1A;stroke-width:19.69;stroke-miterlimit:22.9256}
    .str2 {stroke:#0060AA;stroke-width:19.69;stroke-miterlimit:22.9256}
    .fil0 {fill:none}
    .fil2 {fill:#2B2A29}
    .fil1 {fill:#0060AA}
   ]]>
  </style>
 </defs>
 <g id="Layer_x0020_1">
  <metadata id="CorelCorpID_0Corel-Layer"/>
  <g id="_2169036197488">
   <path class="fil0 str0" d="M797.29 416.48c38.34,57.18 76.68,114.37 115.02,171.55 68.12,101.59 55.01,176.5 -35.89,262.46 -74.39,70.35 -222.49,251.33 -329.77,176.74 -93.7,-65.13 -340.52,-402.54 -268.64,-482.41 31.12,-34.58 66.3,-60.65 118.73,-29.47 23.34,-56.01 54.17,-95.75 136.89,-22.82 32.96,-2.15 65.91,-7.13 98.87,-22.81 -3.5,-12.13 -10.87,-19.99 -22.81,-22.82 -10.98,0 -21.97,0 -32.96,0 0.84,-19.44 1.69,-38.87 2.54,-58.31 -12.95,-22.66 -25.9,-45.32 -38.85,-67.98 -50.61,-88.61 90.67,-165.26 209.78,-140.26 55.28,11.6 214.85,151.41 47.09,236.13z"/>
   <path class="fil1 str0" d="M546.01 239.13c35.78,-47 124.89,-75.43 204.19,-58.78 19.52,4.09 52.05,24.19 78.56,52.19 8.58,9.06 28.57,13.88 35.25,24.32 6.07,9.5 -7.81,22.23 -5.18,32.8 1.57,6.32 20.71,20.96 21.7,27.37 1.78,11.51 -9.17,23.47 -13.85,33.65 -9,19.57 -20.14,36.11 -50.52,55.16 -5.03,-189.17 -122.94,-200.95 -270.15,-166.71z"/>
   <path class="fil0 str0" d="M855.27 708.33c-52.2,17.45 -85.58,64.47 -114.08,119.15"/>
   <path class="fil0 str0" d="M813.5 698.61c-42.54,22.02 -49.3,29.01 -77.8,83.69"/>
   <path class="fil0 str0" d="M643.59 661.43c-46.28,18.79 -72.93,47.08 -88.73,96.34"/>
   <path class="fil0 str0" d="M643.59 961.85c-25.35,-23.66 -16.48,-35.91 -41.83,-59.57 1.78,-41.24 7.89,-84.37 -45.63,-101.41 -46.41,-4.46 -162.3,-12.95 -174.04,-69.34 -3,-14.41 1.43,-23.24 9.26,-29.53 -29.22,-34.18 -67.04,-66.78 17.75,-121.69 -4.12,-21.66 -8.24,-43.31 -12.35,-64.96"/>
   <path class="fil0 str0" d="M513.03 627.21c27.26,13.87 40.78,37.67 48.17,65.92 -6.09,13.8 -14.18,21.27 -25.35,19.01 2.65,22.52 -6.77,32.95 -13.94,45.63"/>
   <path class="fil1 str0" d="M643.59 961.85c-2.75,-48.3 -2.96,-97.85 -46.23,-126.32 7.76,25.17 7.5,46.62 4.41,66.74 16.38,10.11 28.92,35.57 41.83,59.57z"/>
   <circle class="fil2 str0" cx="474.2" cy="542" r="10.14"/>
   <circle class="fil2 str0" cx="515.87" cy="564.83" r="10.14"/>
   <path class="fil0 str0" d="M360.02 629.38c47.37,-10.09 75.94,1.1 86.12,29.87"/>
   <path class="fil1" d="M637.54 296.1c-33.4,1.58 -49.53,21.55 -56.72,51.02 18.49,-27.61 40.67,-35.33 65.92,-26.61 -3.07,-8.14 -6.13,-16.27 -9.19,-24.4z"/>
   <circle class="fil2 str0" cx="619.79" cy="354.41" r="10.14"/>
   <path class="fil0 str0" d="M409.09 580.31c27.69,1.43 46.32,11.19 52.89,32.05"/>
   <path class="fil1 str0" d="M558.56 800.11l-11.91 -0.13 -6.06 -0.58 -47.06 -5.87 -31.45 -6.32 -17.26 -4.84 -20.32 -7.69 -13.88 -7.3 -12.57 -9.33 -6.41 -6.77 -7.83 -13.69 12.89 -1.63c68.54,0 128.59,25.68 161.86,64.15z"/>
   <path class="fil0 str0" d="M632.5 469.71c35.13,55.45 71.91,50.9 112.12,-77.9 30.59,83.8 12.1,139.72 -31.69,181.26"/>
   <path class="fil1" d="M727.99 286.5c10.98,-2.95 23.79,9.19 28.59,27.11 4.81,17.91 -4.67,47.09 -11.19,37.78 -10.08,-14.41 -7.02,-50.4 -24.81,-60.28 -2.54,-1.41 4.37,-3.78 7.41,-4.6z"/>
  </g>
  <circle class="fil0 str1" cx="610.24" cy="610.24" r="599.46"/>
  <circle class="fil0 str2" cx="610.24" cy="610.24" r="523.23"/>
 </g>
</svg>
